<svg id="Layer_1" enable-background="new 0 0 512 512" height="512" viewBox="0 0 512 512" width="512" xmlns="http://www.w3.org/2000/svg"><path d="m376.242 39.565v432.87h-240.484v-432.87h64.129l16.032 32.064h80.162l16.032-32.064z" fill="#fee94f"/><path d="m408.306 7.5v497h-304.612v-497zm-32.064 464.935v-432.87h-64.129l-16.032 32.065h-80.161l-16.032-32.065h-64.129v432.871h240.483z" fill="#c5d1db"/><path d="m352.194 39.565h24.048v432.871h-24.048z" fill="#fbac42"/><path d="m384.258 7.5h24.048v497h-24.048z" fill="#a8bbc9"/><path d="m256 247.984c13.307 0 24.048 10.742 24.048 24.048s-10.741 24.049-24.048 24.049-24.048-10.742-24.048-24.048 10.741-24.049 24.048-24.049z" fill="#fff"/><path d="m328.145 231.952v96.194h-144.29v-96.194h32.065l16.032-24.048h48.097l16.032 24.048zm-48.097 40.08c0-13.307-10.742-24.048-24.048-24.048-13.307 0-24.048 10.742-24.048 24.048s10.742 24.048 24.048 24.048c13.307.001 24.048-10.741 24.048-24.048z" fill="#80b6f7"/><path d="m280.048 360.726h16.032v15h-16.032z" fill="#fff"/><path d="m215.919 360.726h16.032v15h-16.032z" fill="#fff"/><path d="m248.5 143.774h15v32.064h-15z" fill="#fff"/><g fill="#231f20"><path d="m247.984 0v15h152.823v482h-289.614v-482h120.759v-15h-135.759v512h319.614v-512z"/><path d="m291.445 64.129h-70.89l-16.033-32.065h-76.264v368.227h15v-353.227h51.994l16.032 32.065h89.432l16.032-32.065h51.994v417.872h-225.484v-48.613h-15v63.613h255.484v-447.872h-143.774v15h60.01z"/><path d="m176.355 335.645h159.29v-111.193h-35.551l-16.032-24.048h-56.124l-16.032 24.048h-35.551zm15-96.193h28.578l16.032-24.048h40.069l16.032 24.048h28.578v81.193h-129.29v-81.193z"/><path d="m256 240.484c-17.396 0-31.548 14.152-31.548 31.548s14.152 31.548 31.548 31.548 31.548-14.152 31.548-31.548-14.152-31.548-31.548-31.548zm0 48.097c-9.125 0-16.548-7.423-16.548-16.548s7.423-16.548 16.548-16.548 16.548 7.423 16.548 16.548-7.423 16.548-16.548 16.548z"/><path d="m247.984 360.726h16.032v15h-16.032z"/><path d="m300.605 154.826h15v34.009h-15z" transform="matrix(.707 .707 -.707 .707 211.745 -167.535)"/><path d="m196.395 154.826h15v34.009h-15z" transform="matrix(.707 -.707 .707 .707 -61.783 194.504)"/></g></svg>